<svg width="20" height="20" viewBox="0 0 20 20" fill="none" xmlns="http://www.w3.org/2000/svg">
<g id="Group 45.2">
<g id="Group 44">
<path id="Vector" d="M17.8978 1H1.63975C1.30857 1 1.0376 1.27097 1.0376 1.60215V2.80645V3.4086V17.8602C1.0376 18.1914 1.30857 18.4624 1.63975 18.4624H17.8978C18.229 18.4624 18.5 18.1914 18.5 17.8602V3.4086V2.80645V1.60215C18.5 1.27097 18.229 1 17.8978 1Z" stroke="#555555" stroke-width="1.2" stroke-miterlimit="10"/>
<path id="Vector_2" d="M3.52248 3.35182C3.39059 3.34815 3.26236 3.29686 3.16711 3.20527C2.97294 3.00744 2.97294 2.68871 3.16711 2.49088C3.36128 2.29304 3.68001 2.29304 3.87785 2.48721C3.9731 2.58247 4.02805 2.71069 4.02805 2.84624C4.03171 3.12101 3.8119 3.34449 3.53713 3.34815C3.52981 3.35182 3.52614 3.35182 3.52248 3.35182Z" fill="#555555"/>
<path id="Vector_3" d="M5.82521 3.35182C5.69332 3.34815 5.5651 3.29686 5.46985 3.20527C5.27568 3.00744 5.27568 2.68871 5.46985 2.49088C5.66402 2.29304 5.98275 2.29304 6.18058 2.48721C6.27583 2.58247 6.33079 2.71069 6.33079 2.84624C6.33445 3.12101 6.11464 3.34449 5.83987 3.34815C5.83254 3.35182 5.82888 3.35182 5.82521 3.35182Z" fill="#555555"/>
<path id="Vector_4" d="M7.8384 3.35182C7.70651 3.34815 7.57828 3.29686 7.48303 3.20527C7.28886 3.00744 7.28886 2.68871 7.48303 2.49088C7.6772 2.29304 7.99593 2.29304 8.19376 2.48721C8.28902 2.58247 8.34397 2.71069 8.34397 2.84624C8.34763 3.12101 8.12782 3.34449 7.85305 3.34815C7.84572 3.35182 7.84206 3.35182 7.8384 3.35182Z" fill="#555555"/>
<path id="Vector_5" d="M17.1057 6.36865H3.01318V9.05295H17.1057V6.36865Z" fill="#555555"/>
<path id="Vector_6" d="M6.36856 10.395H3.01318V17.1058H6.36856V10.395Z" fill="#555555"/>
<path id="Vector_7" d="M17.1058 10.395H8.38184V12.4082H17.1058V10.395Z" fill="#555555"/>
<path id="Vector_8" d="M17.1058 14.4214H8.38184V17.1057H17.1058V14.4214Z" fill="#555555"/>
</g>
<path id="Vector_9" d="M1 4.35547H18.5" stroke="#555555" stroke-width="1.2" stroke-miterlimit="10"/>
</g>
</svg>
