<svg width="21" height="21" viewBox="0 0 21 21" fill="none" xmlns="http://www.w3.org/2000/svg">
<path d="M20.5945 20.0499L17.6225 12.9024C17.5758 12.7899 17.4661 12.7167 17.3446 12.7167H3.27309C3.1515 12.7167 3.04186 12.7899 2.99514 12.9024L0.0231093 20.0499C-0.0155866 20.143 -0.00520474 20.2493 0.0506369 20.333C0.106478 20.4168 0.200387 20.4672 0.301059 20.4672H20.3166C20.4173 20.4672 20.5112 20.4168 20.567 20.333C20.6229 20.2493 20.6332 20.143 20.5945 20.0499Z" fill="black"/>
<path d="M18.6614 15.4256L17.6158 12.9028C17.5691 12.7901 17.4596 12.7167 17.3381 12.7167H3.27978C3.1583 12.7167 3.04876 12.7901 3.00209 12.9028L1.95654 15.4256H18.6614Z" fill="black"/>
<path d="M6.99381 14.8237L4.66553 20.4672H13.6199L6.99381 14.8237Z" fill="black"/>
<path d="M13.1648 17.3095H19.4891L18.5744 15.1177H10.6327L7.89073 12.7167H5.74604L4.75596 15.1177H2.04368L1.12891 17.3095H3.84118L2.50675 20.4672H4.98126L7.10542 15.3378L13.1994 20.4672H16.843L13.1648 17.3095Z" fill="white"/>
<path d="M10.3086 3.05176e-05C6.74044 3.05176e-05 3.8374 2.92354 3.8374 6.51689C3.8374 7.75571 4.17217 9.07018 4.83247 10.4234C5.35489 11.4944 6.08186 12.5932 6.99304 13.6893C8.53902 15.5486 10.0612 16.7423 10.1252 16.7923C10.1794 16.8344 10.244 16.8553 10.3086 16.8553C10.3733 16.8553 10.4381 16.8344 10.4921 16.7923C10.5561 16.7423 12.0783 15.5486 13.6242 13.6893C14.5354 12.5932 15.2624 11.4944 15.785 10.4234C16.4451 9.07018 16.7799 7.75571 16.7799 6.51689C16.7799 2.92354 13.877 3.05176e-05 10.3086 3.05176e-05Z" fill="black"/>
<path d="M14.1464 6.50888C14.1464 8.64919 12.4283 10.3841 10.3088 10.3841C8.18941 10.3841 6.47119 8.64919 6.47119 6.50888C6.47119 4.36873 8.18941 2.63367 10.3088 2.63367C12.4283 2.63367 14.1464 4.36873 14.1464 6.50888Z" fill="white"/>
</svg>
