<svg width="44" height="44" viewBox="0 0 44 44" fill="none" xmlns="http://www.w3.org/2000/svg">
<circle cx="22" cy="22" r="21" stroke="white" stroke-width="2"/>
<path d="M25.4922 23.8125C26.5234 23.8125 27.4688 24.0703 28.3711 24.5859C29.2305 25.1016 29.9609 25.832 30.4766 26.6914C30.9922 27.5938 31.25 28.5391 31.25 29.5703V30.6875C31.25 31.2891 31.0352 31.7617 30.6484 32.1484C30.2188 32.5781 29.7461 32.75 29.1875 32.75H14.0625C13.4609 32.75 12.9883 32.5781 12.6016 32.1484C12.1719 31.7617 12 31.2891 12 30.6875V29.5703C12 28.5391 12.2578 27.5938 12.7734 26.6914C13.2891 25.832 13.9766 25.1016 14.8789 24.5859C15.7383 24.0703 16.7266 23.8125 17.7578 23.8125C18.1016 23.8125 18.6172 23.9414 19.2188 24.1133C19.6055 24.2422 19.9492 24.3281 20.207 24.3711C20.6367 24.457 21.1094 24.5 21.625 24.5C22.1406 24.5 22.6133 24.457 23.043 24.3711C23.3008 24.3281 23.6016 24.2422 24.0312 24.1133C24.6328 23.9414 25.1055 23.8125 25.4922 23.8125ZM29.1875 30.6875V29.5703C29.1875 28.582 28.8008 27.7227 28.0703 26.9922C27.3398 26.2617 26.4805 25.875 25.4922 25.875C25.3203 25.875 25.0195 25.9609 24.6328 26.0469C23.6016 26.3906 22.5703 26.5625 21.625 26.5625C20.6797 26.5625 19.6484 26.3906 18.6172 26.0469C18.1875 25.9609 17.8867 25.875 17.7578 25.875C16.7266 25.875 15.8672 26.2617 15.1367 26.9922C14.4062 27.7227 14.0625 28.582 14.0625 29.5703V30.6875H29.1875ZM21.625 23.125C20.5078 23.125 19.4766 22.8672 18.5312 22.3086C17.5859 21.75 16.8125 20.9766 16.2539 20.0312C15.6953 19.0859 15.4375 18.0547 15.4375 16.9375C15.4375 15.8203 15.6953 14.7891 16.2539 13.8438C16.8125 12.8984 17.5859 12.168 18.5312 11.6094C19.4766 11.0508 20.5078 10.75 21.625 10.75C22.7422 10.75 23.7734 11.0508 24.7188 11.6094C25.6641 12.168 26.3945 12.8984 26.9531 13.8438C27.5117 14.7891 27.8125 15.8203 27.8125 16.9375C27.8125 18.0547 27.5117 19.0859 26.9531 20.0312C26.3945 20.9766 25.6641 21.75 24.7188 22.3086C23.7734 22.8672 22.7422 23.125 21.625 23.125ZM21.625 12.8125C20.4648 12.8125 19.4766 13.2422 18.7031 14.0156C17.8867 14.832 17.5 15.8203 17.5 16.9375C17.5 18.0977 17.8867 19.0859 18.7031 19.8594C19.4766 20.6758 20.4648 21.0625 21.625 21.0625C22.7422 21.0625 23.7305 20.6758 24.5469 19.8594C25.3203 19.0859 25.75 18.0977 25.75 16.9375C25.75 15.8203 25.3203 14.832 24.5469 14.0156C23.7305 13.2422 22.7422 12.8125 21.625 12.8125Z" fill="white"/>
</svg>
